<svg width="9" height="12" viewBox="0 0 9 12" fill="none" xmlns="http://www.w3.org/2000/svg">
<path d="M8.99983 1.79001V10.21C9.00031 10.5424 8.90664 10.8682 8.72967 11.1496C8.55269 11.4309 8.29965 11.6565 7.99983 11.8C7.64408 11.968 7.24829 12.0328 6.85756 11.9868C6.46682 11.9408 6.09686 11.786 5.78983 11.54L0.689827 7.33001C0.499197 7.16479 0.346311 6.96053 0.241529 6.73105C0.136748 6.50158 0.0825195 6.25227 0.0825195 6.00001C0.0825195 5.74775 0.136748 5.49843 0.241529 5.26896C0.346311 5.03949 0.499197 4.83522 0.689827 4.67001L5.78983 0.460006C6.09686 0.214 6.46682 0.0591917 6.85756 0.0132227C7.24829 -0.0327463 7.64408 0.0319748 7.99983 0.200007C8.29965 0.343549 8.55269 0.569066 8.72967 0.850453C8.90664 1.13184 9.00031 1.45759 8.99983 1.79001Z" fill="black"/>
</svg>
