<svg width="25" height="25" viewBox="0 0 25 25" fill="none" xmlns="http://www.w3.org/2000/svg">
<path d="M11.7188 6.25H13.2812V10.9375H11.7188V6.25ZM11.7188 14.0625H13.2812V18.75H11.7188V14.0625ZM14.0625 11.7188H18.75V13.2812H14.0625V11.7188ZM6.25 11.7188H10.9375V13.2812H6.25V11.7188ZM3.125 7.8125H1.5625V3.125C1.5625 2.7106 1.72712 2.31317 2.02015 2.02015C2.31317 1.72712 2.7106 1.5625 3.125 1.5625H7.8125V3.125H3.125V7.8125ZM7.8125 23.4375H3.125C2.7106 23.4375 2.31317 23.2729 2.02015 22.9799C1.72712 22.6868 1.5625 22.2894 1.5625 21.875V17.1875H3.125V21.875H7.8125V23.4375ZM21.875 23.4375H17.1875V21.875H21.875V17.1875H23.4375V21.875C23.4375 22.2894 23.2729 22.6868 22.9799 22.9799C22.6868 23.2729 22.2894 23.4375 21.875 23.4375ZM23.4375 7.8125H21.875V3.125H17.1875V1.5625H21.875C22.2894 1.5625 22.6868 1.72712 22.9799 2.02015C23.2729 2.31317 23.4375 2.7106 23.4375 3.125V7.8125Z" fill="white"/>
</svg>
