<svg width="254" height="30" viewBox="0 0 254 30" fill="none" xmlns="http://www.w3.org/2000/svg">
<g clip-path="url(#clip0_45_22)">
<path fill-rule="evenodd" clip-rule="evenodd" d="M20.5781 1.83532C16.4776 4.20734 13.7187 8.64086 13.7187 13.7187C13.7187 18.7966 16.4776 23.2301 20.5781 25.6022C18.5602 26.7693 16.2175 27.4375 13.7187 27.4375C6.14209 27.4375 0 21.2954 0 13.7187C0 6.14209 6.14209 0 13.7187 0C16.2175 0 18.5602 0.668061 20.5781 1.83532Z" fill="black"/>
<path fill-rule="evenodd" clip-rule="evenodd" d="M34.0225 1.83532C38.1229 4.20734 40.8818 8.64086 40.8818 13.7187C40.8818 18.7966 38.1229 23.2301 34.0225 25.6022C36.0404 26.7693 38.3831 27.4375 40.8818 27.4375C48.4585 27.4375 54.6006 21.2954 54.6006 13.7187C54.6006 6.14209 48.4585 0 40.8818 0C38.3831 0 36.0404 0.668059 34.0225 1.83532Z" fill="black"/>
<path d="M27.3003 23.3218C32.5282 23.3218 36.7662 19.0838 36.7662 13.8559C36.7662 8.62802 32.5282 4.38998 27.3003 4.38998C22.0724 4.38998 17.8344 8.62802 17.8344 13.8559C17.8344 19.0838 22.0724 23.3218 27.3003 23.3218Z" fill="black"/>
</g>
<path d="M72.7093 23.3602V0.875153H81.0996C82.6289 0.875153 83.9769 1.15684 85.1439 1.72023C86.3311 2.26349 87.2566 3.06832 87.9206 4.13473C88.5846 5.18101 88.9166 6.45868 88.9166 7.96774C88.9166 9.4567 88.5746 10.7343 87.8904 11.8008C87.2264 12.847 86.311 13.6519 85.1439 14.2152C83.9769 14.7786 82.6289 15.0603 81.0996 15.0603H76.8139V23.3602H72.7093ZM76.8139 11.4386H81.16C81.9045 11.4386 82.5483 11.2978 83.0916 11.016C83.6349 10.7142 84.0574 10.3018 84.3592 9.77861C84.661 9.25545 84.8119 8.65182 84.8119 7.96774C84.8119 7.26351 84.661 6.65988 84.3592 6.15687C84.0574 5.63372 83.6349 5.23131 83.0916 4.94962C82.5483 4.64781 81.9045 4.4969 81.16 4.4969H76.8139V11.4386ZM99.3866 23.7223C97.777 23.7223 96.3082 23.3501 94.9802 22.6056C93.6723 21.8612 92.6261 20.845 91.8413 19.5573C91.0767 18.2696 90.6945 16.8008 90.6945 15.1509C90.6945 13.501 91.0767 12.0321 91.8413 10.7444C92.6261 9.4567 93.6723 8.44056 94.9802 7.69611C96.2881 6.95163 97.7569 6.5794 99.3866 6.5794C100.996 6.5794 102.455 6.95163 103.763 7.69611C105.071 8.44056 106.107 9.4567 106.872 10.7444C107.656 12.012 108.049 13.4808 108.049 15.1509C108.049 16.8008 107.656 18.2696 106.872 19.5573C106.087 20.845 105.041 21.8612 103.733 22.6056C102.425 23.3501 100.976 23.7223 99.3866 23.7223ZM99.3866 20.1006C100.272 20.1006 101.047 19.8893 101.711 19.4668C102.395 19.0442 102.928 18.4607 103.31 17.7163C103.713 16.9517 103.914 16.0966 103.914 15.1509C103.914 14.1851 103.713 13.34 103.31 12.6156C102.928 11.8712 102.395 11.2877 101.711 10.8651C101.047 10.4225 100.272 10.2011 99.3866 10.2011C98.4812 10.2011 97.6864 10.4225 97.0023 10.8651C96.3182 11.2877 95.775 11.8712 95.3725 12.6156C94.9903 13.34 94.7991 14.1851 94.7991 15.1509C94.7991 16.0966 94.9903 16.9517 95.3725 17.7163C95.775 18.4607 96.3182 19.0442 97.0023 19.4668C97.6864 19.8893 98.4812 20.1006 99.3866 20.1006ZM115.702 23.3602L109.243 6.94158H113.559L118.237 19.8591H116.638L121.346 6.94158H125.662L119.203 23.3602H115.702ZM135.339 23.7223C133.649 23.7223 132.17 23.3401 130.902 22.5754C129.635 21.8108 128.649 20.7747 127.945 19.4668C127.24 18.1589 126.888 16.7102 126.888 15.1207C126.888 13.4708 127.24 12.012 127.945 10.7444C128.669 9.4567 129.645 8.44056 130.872 7.69611C132.12 6.95163 133.508 6.5794 135.037 6.5794C136.325 6.5794 137.452 6.79067 138.418 7.21321C139.404 7.63575 140.238 8.21927 140.923 8.96372C141.607 9.70817 142.13 10.5633 142.492 11.5291C142.854 12.4748 143.035 13.501 143.035 14.6076C143.035 14.8893 143.015 15.181 142.975 15.4829C142.955 15.7847 142.904 16.0462 142.824 16.2676H130.148V13.2495H140.591L138.719 14.668C138.9 13.7424 138.85 12.9175 138.568 12.1931C138.307 11.4688 137.864 10.8953 137.24 10.4728C136.637 10.0502 135.902 9.83897 135.037 9.83897C134.212 9.83897 133.478 10.0502 132.834 10.4728C132.19 10.8752 131.697 11.4788 131.355 12.2837C131.033 13.0684 130.912 14.0241 130.993 15.1509C130.912 16.1569 131.043 17.0523 131.385 17.837C131.747 18.6016 132.271 19.1952 132.955 19.6177C133.659 20.0402 134.464 20.2515 135.369 20.2515C136.275 20.2515 137.039 20.0603 137.663 19.678C138.307 19.2958 138.81 18.7827 139.172 18.1388L142.371 19.7082C142.05 20.4929 141.546 21.1871 140.862 21.7907C140.178 22.3944 139.363 22.8672 138.418 23.2092C137.492 23.5513 136.466 23.7223 135.339 23.7223ZM146.032 23.3602V6.94158H149.744V10.5935L149.443 10.0502C149.825 8.8229 150.419 7.96774 151.223 7.48484C152.049 7.00194 153.189 6.8977 154.336 6.8977L156.586 6.94158V10.4728H153.65C152.524 10.4728 151.697 10.6136 151.012 11.3179C150.328 12.0019 149.986 12.9677 149.986 14.2152V23.3602H146.032ZM165.248 23.5412C163.397 23.5412 161.958 23.0382 160.932 22.0322C159.926 21.006 159.423 19.5674 159.423 17.7163V10.4728H156.586V6.94158H156.888C157.692 6.94158 158.317 6.73031 158.759 6.30777C159.201 5.88524 159.423 5.27155 159.423 4.46672V3.19911H163.377V6.94158H167.149V10.4728H163.377V17.505C163.377 18.0483 163.467 18.5111 163.648 18.8933C163.849 19.2756 164.151 19.5674 164.554 19.7686C164.976 19.9698 165.509 20.0704 166.153 20.0704C166.294 20.0704 166.455 20.0603 166.636 20.0402C166.837 20.0201 167.029 20 167.21 19.9799V23.3602C166.928 23.4004 166.606 23.4406 166.244 23.4809C165.882 23.5211 165.55 23.5412 165.248 23.5412ZM172.223 30C171.78 30 171.347 29.9598 170.925 29.8793C170.502 29.8189 170.12 29.6982 169.778 29.5171V26.2274C170.039 26.2877 170.351 26.3481 170.714 26.4085C171.096 26.4688 171.448 26.499 171.77 26.499C172.675 26.499 173.329 26.2877 173.732 25.8652C174.154 25.4628 174.526 24.9195 174.848 24.2354L175.935 21.7002L175.875 25.0201L168.722 6.94158H172.977L177.987 20.2817H176.478L181.458 6.94158H185.744L178.591 25.0201C178.168 26.0664 177.655 26.9618 177.052 27.7063C176.448 28.4507 175.744 29.0141 174.939 29.3964C174.154 29.7988 173.249 30 172.223 30ZM188.247 23.3602V0.875153H192.351V19.7384H201.979V23.3602H188.247ZM212.089 23.7223C210.399 23.7223 208.92 23.3401 207.653 22.5754C206.385 21.8108 205.399 20.7747 204.695 19.4668C203.99 18.1589 203.639 16.7102 203.639 15.1207C203.639 13.4708 203.99 12.012 204.695 10.7444C205.419 9.4567 206.395 8.44056 207.622 7.69611C208.869 6.95163 210.258 6.5794 211.787 6.5794C213.075 6.5794 214.202 6.79067 215.168 7.21321C216.153 7.63575 216.988 8.21927 217.673 8.96372C218.357 9.70817 218.88 10.5633 219.242 11.5291C219.604 12.4748 219.785 13.501 219.785 14.6076C219.785 14.8893 219.765 15.181 219.725 15.4829C219.705 15.7847 219.654 16.0462 219.574 16.2676H206.898V13.2495H217.341L215.47 14.668C215.651 13.7424 215.6 12.9175 215.319 12.1931C215.057 11.4688 214.614 10.8953 213.991 10.4728C213.387 10.0502 212.652 9.83897 211.787 9.83897C210.962 9.83897 210.228 10.0502 209.584 10.4728C208.94 10.8752 208.447 11.4788 208.105 12.2837C207.783 13.0684 207.662 14.0241 207.743 15.1509C207.662 16.1569 207.793 17.0523 208.136 17.837C208.498 18.6016 209.02 19.1952 209.705 19.6177C210.409 20.0402 211.214 20.2515 212.119 20.2515C213.025 20.2515 213.789 20.0603 214.413 19.678C215.057 19.2958 215.56 18.7827 215.922 18.1388L219.121 19.7082C218.799 20.4929 218.296 21.1871 217.612 21.7907C216.928 22.3944 216.113 22.8672 215.168 23.2092C214.242 23.5513 213.216 23.7223 212.089 23.7223ZM222.782 23.3602V6.94158H226.495V10.171L226.193 9.59752C226.575 8.61163 227.199 7.86711 228.064 7.36412C228.95 6.84097 229.976 6.5794 231.143 6.5794C232.35 6.5794 233.416 6.84097 234.342 7.36412C235.288 7.88728 236.022 8.62164 236.545 9.56734C237.068 10.4929 237.33 11.5694 237.33 12.7967V23.3602H233.376V13.7324C233.376 13.008 233.235 12.3843 232.953 11.8611C232.671 11.338 232.279 10.9356 231.776 10.6539C231.293 10.3521 230.72 10.2011 230.056 10.2011C229.412 10.2011 228.838 10.3521 228.336 10.6539C227.833 10.9356 227.441 11.338 227.159 11.8611C226.877 12.3843 226.736 13.008 226.736 13.7324V23.3602H222.782ZM246.92 23.7223C245.17 23.7223 243.641 23.3099 242.333 22.4849C241.045 21.6398 240.16 20.503 239.677 19.0744L242.635 17.6559C243.057 18.5814 243.641 19.3058 244.385 19.829C245.15 20.3521 245.995 20.6137 246.92 20.6137C247.645 20.6137 248.218 20.4527 248.641 20.1308C249.063 19.8089 249.275 19.3863 249.275 18.8632C249.275 18.5412 249.184 18.2796 249.003 18.0784C248.842 17.8571 248.611 17.676 248.309 17.5352C248.027 17.3742 247.715 17.2435 247.373 17.1428L244.687 16.3883C243.299 15.9859 242.242 15.3722 241.518 14.5472C240.814 13.7223 240.462 12.7465 240.462 11.6197C240.462 10.6136 240.713 9.73835 241.216 8.9939C241.74 8.22929 242.454 7.63575 243.359 7.21321C244.284 6.79067 245.341 6.5794 246.528 6.5794C248.078 6.5794 249.445 6.95163 250.633 7.69611C251.82 8.44056 252.665 9.48688 253.168 10.835L250.15 12.2535C249.868 11.509 249.395 10.9154 248.731 10.4728C248.067 10.0301 247.323 9.80879 246.498 9.80879C245.834 9.80879 245.311 9.9597 244.928 10.2615C244.546 10.5633 244.355 10.9557 244.355 11.4386C244.355 11.7404 244.435 12.0019 244.596 12.2233C244.758 12.4446 244.979 12.6257 245.26 12.7666C245.562 12.9074 245.905 13.0382 246.287 13.1589L248.912 13.9436C250.26 14.3461 251.297 14.9497 252.021 15.7545C252.765 16.5593 253.138 17.5453 253.138 18.7123C253.138 19.6981 252.876 20.5734 252.353 21.338C251.83 22.0825 251.105 22.666 250.18 23.0885C249.255 23.5111 248.168 23.7223 246.92 23.7223Z" fill="black"/>
<defs>
<clipPath id="clip0_45_22">
<rect width="54.6968" height="27.4375" fill="white"/>
</clipPath>
</defs>
</svg>
