<svg width="83" height="42" viewBox="0 0 83 42" fill="none" xmlns="http://www.w3.org/2000/svg">
<g clip-path="url(#clip0_284_4)">
<path fill-rule="evenodd" clip-rule="evenodd" d="M31.612 2.75551C25.4555 6.31681 21.3134 12.9732 21.3134 20.597C21.3134 28.2209 25.4555 34.8772 31.612 38.4386C28.5823 40.1909 25.065 41.194 21.3134 41.194C9.93804 41.194 0.716431 31.9725 0.716431 20.597C0.716431 9.22161 9.93804 0 21.3134 0C25.065 0 28.5823 1.00301 31.612 2.75551Z" fill="black"/>
<path fill-rule="evenodd" clip-rule="evenodd" d="M51.797 2.75551C57.9534 6.31681 62.0955 12.9732 62.0955 20.597C62.0955 28.2209 57.9534 34.8772 51.797 38.4386C54.8266 40.1909 58.3439 41.194 62.0955 41.194C73.4709 41.194 82.6925 31.9725 82.6925 20.597C82.6925 9.22161 73.4709 0 62.0955 0C58.3439 0 54.8266 1.00301 51.797 2.75551Z" fill="black"/>
<path d="M41.7045 35.0149C49.5535 35.0149 55.9164 28.652 55.9164 20.803C55.9164 12.954 49.5535 6.59106 41.7045 6.59106C33.8555 6.59106 27.4926 12.954 27.4926 20.803C27.4926 28.652 33.8555 35.0149 41.7045 35.0149Z" fill="black"/>
</g>
<defs>
<clipPath id="clip0_284_4">
<rect width="82.1206" height="41.194" fill="white" transform="translate(0.716431)"/>
</clipPath>
</defs>
</svg>
