<svg width="264" height="43" viewBox="0 0 264 43" fill="none" xmlns="http://www.w3.org/2000/svg">
<path d="M0.191438 33V0.219997H12.4234C14.6528 0.219997 16.6181 0.630665 18.3194 1.452C20.0501 2.244 21.3994 3.41733 22.3674 4.972C23.3354 6.49733 23.8194 8.36 23.8194 10.56C23.8194 12.7307 23.3208 14.5933 22.3234 16.148C21.3554 17.6733 20.0208 18.8467 18.3194 19.668C16.6181 20.4893 14.6528 20.9 12.4234 20.9H6.17544V33H0.191438ZM6.17544 15.62H12.5114C13.5968 15.62 14.5354 15.4147 15.3274 15.004C16.1194 14.564 16.7354 13.9627 17.1754 13.2C17.6154 12.4373 17.8354 11.5573 17.8354 10.56C17.8354 9.53333 17.6154 8.65333 17.1754 7.92C16.7354 7.15733 16.1194 6.57067 15.3274 6.16C14.5354 5.72 13.5968 5.5 12.5114 5.5H6.17544V15.62ZM39.0833 33.528C36.7366 33.528 34.5953 32.9853 32.6593 31.9C30.7526 30.8147 29.2273 29.3333 28.0833 27.456C26.9686 25.5787 26.4113 23.4373 26.4113 21.032C26.4113 18.6267 26.9686 16.4853 28.0833 14.608C29.2273 12.7307 30.7526 11.2493 32.6593 10.164C34.566 9.07866 36.7073 8.536 39.0833 8.536C41.43 8.536 43.5566 9.07866 45.4633 10.164C47.37 11.2493 48.8806 12.7307 49.9953 14.608C51.1393 16.456 51.7113 18.5973 51.7113 21.032C51.7113 23.4373 51.1393 25.5787 49.9953 27.456C48.8513 29.3333 47.326 30.8147 45.4193 31.9C43.5126 32.9853 41.4006 33.528 39.0833 33.528ZM39.0833 28.248C40.374 28.248 41.5033 27.94 42.4713 27.324C43.4686 26.708 44.246 25.8573 44.8033 24.772C45.39 23.6573 45.6833 22.4107 45.6833 21.032C45.6833 19.624 45.39 18.392 44.8033 17.336C44.246 16.2507 43.4686 15.4 42.4713 14.784C41.5033 14.1387 40.374 13.816 39.0833 13.816C37.7633 13.816 36.6046 14.1387 35.6073 14.784C34.61 15.4 33.818 16.2507 33.2313 17.336C32.674 18.392 32.3953 19.624 32.3953 21.032C32.3953 22.4107 32.674 23.6573 33.2313 24.772C33.818 25.8573 34.61 26.708 35.6073 27.324C36.6046 27.94 37.7633 28.248 39.0833 28.248ZM62.8688 33L53.4528 9.064H59.7448L66.5648 27.896H64.2328L71.0968 9.064H77.3888L67.9728 33H62.8688ZM91.4969 33.528C89.0329 33.528 86.8769 32.9707 85.0289 31.856C83.1809 30.7413 81.7436 29.2307 80.7169 27.324C79.6903 25.4173 79.1769 23.3053 79.1769 20.988C79.1769 18.5827 79.6903 16.456 80.7169 14.608C81.7729 12.7307 83.1956 11.2493 84.9849 10.164C86.8036 9.07866 88.8276 8.536 91.0569 8.536C92.9343 8.536 94.5769 8.844 95.9849 9.46C97.4223 10.076 98.6396 10.9267 99.6369 12.012C100.634 13.0973 101.397 14.344 101.925 15.752C102.453 17.1307 102.717 18.6267 102.717 20.24C102.717 20.6507 102.688 21.076 102.629 21.516C102.6 21.956 102.526 22.3373 102.409 22.66H83.9289V18.26H99.1529L96.4249 20.328C96.6889 18.9787 96.6156 17.776 96.2049 16.72C95.8236 15.664 95.1783 14.828 94.2689 14.212C93.3889 13.596 92.3183 13.288 91.0569 13.288C89.8543 13.288 88.7836 13.596 87.8449 14.212C86.9063 14.7987 86.1876 15.6787 85.6889 16.852C85.2196 17.996 85.0436 19.3893 85.1609 21.032C85.0436 22.4987 85.2343 23.804 85.7329 24.948C86.2609 26.0627 87.0236 26.928 88.0209 27.544C89.0476 28.16 90.2209 28.468 91.5409 28.468C92.8609 28.468 93.9756 28.1893 94.8849 27.632C95.8236 27.0747 96.5569 26.3267 97.0849 25.388L101.749 27.676C101.28 28.82 100.546 29.832 99.5489 30.712C98.5516 31.592 97.3636 32.2813 95.9849 32.78C94.6356 33.2787 93.1396 33.528 91.4969 33.528ZM107.086 33V9.064H112.498V14.388L112.058 13.596C112.616 11.8067 113.481 10.56 114.654 9.856C115.857 9.152 117.294 8.8 118.966 8.8H120.374V13.904H118.306C116.664 13.904 115.344 14.4173 114.346 15.444C113.349 16.4413 112.85 17.8493 112.85 19.668V33H107.086ZM135.1 33.264C132.401 33.264 130.304 32.5307 128.808 31.064C127.341 29.568 126.608 27.4707 126.608 24.772V14.212H122.472V9.064H122.912C124.085 9.064 124.995 8.756 125.64 8.14C126.285 7.524 126.608 6.62933 126.608 5.456V3.608H132.372V9.064H137.872V14.212H132.372V24.464C132.372 25.256 132.504 25.9307 132.768 26.488C133.061 27.0453 133.501 27.4707 134.088 27.764C134.704 28.0573 135.481 28.204 136.42 28.204C136.625 28.204 136.86 28.1893 137.124 28.16C137.417 28.1307 137.696 28.1013 137.96 28.072V33C137.549 33.0587 137.08 33.1173 136.552 33.176C136.024 33.2347 135.54 33.264 135.1 33.264ZM145.268 42.68C144.622 42.68 143.992 42.6213 143.376 42.504C142.76 42.416 142.202 42.24 141.704 41.976V37.18C142.085 37.268 142.54 37.356 143.068 37.444C143.625 37.532 144.138 37.576 144.608 37.576C145.928 37.576 146.881 37.268 147.468 36.652C148.084 36.0653 148.626 35.2733 149.096 34.276L150.68 30.58L150.592 35.42L140.164 9.064H146.368L153.672 28.512H151.472L158.732 9.064H164.98L154.552 35.42C153.936 36.9453 153.188 38.2507 152.308 39.336C151.428 40.4213 150.401 41.2427 149.228 41.8C148.084 42.3867 146.764 42.68 145.268 42.68ZM168.629 33V0.219997H174.613V27.72H188.649V33H168.629ZM203.388 33.528C200.924 33.528 198.768 32.9707 196.92 31.856C195.072 30.7413 193.634 29.2307 192.608 27.324C191.581 25.4173 191.068 23.3053 191.068 20.988C191.068 18.5827 191.581 16.456 192.608 14.608C193.664 12.7307 195.086 11.2493 196.876 10.164C198.694 9.07866 200.718 8.536 202.948 8.536C204.825 8.536 206.468 8.844 207.876 9.46C209.313 10.076 210.53 10.9267 211.528 12.012C212.525 13.0973 213.288 14.344 213.816 15.752C214.344 17.1307 214.608 18.6267 214.608 20.24C214.608 20.6507 214.578 21.076 214.52 21.516C214.49 21.956 214.417 22.3373 214.3 22.66H195.82V18.26H211.044L208.316 20.328C208.58 18.9787 208.506 17.776 208.096 16.72C207.714 15.664 207.069 14.828 206.16 14.212C205.28 13.596 204.209 13.288 202.948 13.288C201.745 13.288 200.674 13.596 199.736 14.212C198.797 14.7987 198.078 15.6787 197.58 16.852C197.11 17.996 196.934 19.3893 197.052 21.032C196.934 22.4987 197.125 23.804 197.624 24.948C198.152 26.0627 198.914 26.928 199.912 27.544C200.938 28.16 202.112 28.468 203.432 28.468C204.752 28.468 205.866 28.1893 206.776 27.632C207.714 27.0747 208.448 26.3267 208.976 25.388L213.64 27.676C213.17 28.82 212.437 29.832 211.44 30.712C210.442 31.592 209.254 32.2813 207.876 32.78C206.526 33.2787 205.03 33.528 203.388 33.528ZM218.977 33V9.064H224.389V13.772L223.949 12.936C224.506 11.4987 225.416 10.4133 226.677 9.68C227.968 8.91733 229.464 8.536 231.165 8.536C232.925 8.536 234.48 8.91733 235.829 9.68C237.208 10.4427 238.278 11.5133 239.041 12.892C239.804 14.2413 240.185 15.8107 240.185 17.6V33H234.421V18.964C234.421 17.908 234.216 16.9987 233.805 16.236C233.394 15.4733 232.822 14.8867 232.089 14.476C231.385 14.036 230.549 13.816 229.581 13.816C228.642 13.816 227.806 14.036 227.073 14.476C226.34 14.8867 225.768 15.4733 225.357 16.236C224.946 16.9987 224.741 17.908 224.741 18.964V33H218.977ZM254.167 33.528C251.615 33.528 249.386 32.9267 247.479 31.724C245.602 30.492 244.311 28.8347 243.607 26.752L247.919 24.684C248.535 26.0333 249.386 27.0893 250.471 27.852C251.586 28.6147 252.818 28.996 254.167 28.996C255.223 28.996 256.059 28.7613 256.675 28.292C257.291 27.8227 257.599 27.2067 257.599 26.444C257.599 25.9747 257.467 25.5933 257.203 25.3C256.968 24.9773 256.631 24.7133 256.191 24.508C255.78 24.2733 255.326 24.0827 254.827 23.936L250.911 22.836C248.887 22.2493 247.347 21.3547 246.291 20.152C245.264 18.9493 244.751 17.5267 244.751 15.884C244.751 14.4173 245.118 13.1413 245.851 12.056C246.614 10.9413 247.655 10.076 248.975 9.46C250.324 8.844 251.864 8.536 253.595 8.536C255.854 8.536 257.848 9.07866 259.579 10.164C261.31 11.2493 262.542 12.7747 263.275 14.74L258.875 16.808C258.464 15.7227 257.775 14.8573 256.807 14.212C255.839 13.5667 254.754 13.244 253.551 13.244C252.583 13.244 251.82 13.464 251.263 13.904C250.706 14.344 250.427 14.916 250.427 15.62C250.427 16.06 250.544 16.4413 250.779 16.764C251.014 17.0867 251.336 17.3507 251.747 17.556C252.187 17.7613 252.686 17.952 253.243 18.128L257.071 19.272C259.036 19.8587 260.547 20.7387 261.603 21.912C262.688 23.0853 263.231 24.5227 263.231 26.224C263.231 27.6613 262.85 28.9373 262.087 30.052C261.324 31.1373 260.268 31.988 258.919 32.604C257.57 33.22 255.986 33.528 254.167 33.528Z" fill="white"/>
</svg>
